<?xml version="1.0" encoding="utf-8"?>
<!-- Generator: Adobe Illustrator 19.2.0, SVG Export Plug-In . SVG Version: 6.00 Build 0)  -->
<svg version="1.1" id="Layer_1" xmlns="http://www.w3.org/2000/svg" xmlns:xlink="http://www.w3.org/1999/xlink" x="0px" y="0px"
	 viewBox="0 0 195.2 195.2" style="enable-background:new 0 0 195.2 195.2;" xml:space="preserve">
<style type="text/css">
	.st0{fill:#FFFFFF;}
</style>
<title>swlogo</title>
<circle class="st0" cx="93.8" cy="95.8" r="85.8"/>
<path d="M97.6,0C43.7,0,0,43.7,0,97.6s43.7,97.6,97.6,97.6s97.6-43.7,97.6-97.6l0,0C195.2,43.7,151.5,0,97.6,0z M152.9,124.6H141
	l-15-42h-0.2L111,124.6l7.1,19.9h-10.6l-23.1-66l-39.3,0.1c-8.1,0-8.9,5.6-9,6.5c-0.1,2.2,0.8,7.3,9,7.3h24.4
	c8.8-0.1,16,6.9,16.1,15.7c0,0.1,0,0.2,0,0.3c-0.1,8.9-7.3,16.2-16.3,16.3l-41.5,0.1l0.1-9.2l40-0.1c8,0,7.9-7,7.9-7s0.1-6.7-8-6.7
	L45,101.9c-10.9,0-18.7-6.3-18.7-16c-0.1-10.2,8-16.4,17-16.4l37.8,0.2l-7.8-22.2h10.6l21.9,62.3l13.9-40.3h12.7l14.4,41l0.4,0.2
	l14.2-41.2l10.9-0.1L152.9,124.6z"/>
</svg>
